<svg xmlns="http://www.w3.org/2000/svg" width="64" height="64" viewBox="0 0 64 64" fill="none">
  <defs>
    <linearGradient id="fav-g" x1="0" y1="0" x2="1" y2="1">
      <stop offset="0%" stop-color="#4DD4B6" />
      <stop offset="100%" stop-color="#7DF0DA" />
    </linearGradient>
  </defs>
  <rect x="4" y="4" width="56" height="56" rx="14" fill="#0B1324"/>
  <path d="M18 36.5c0-1.4.8-2.6 2.1-3.2l8.2-3.6c.8-.3 1.6-.3 2.4 0l8.2 3.6c1.3.6 2.1 1.8 2.1 3.2v6.5c0 1.1-.9 2-2 2h-4.3c-1.1 0-2-.9-2-2v-4.4l-3 1.3c-.6.2-1.2.2-1.8 0l-3-1.3V43c0 1.1-.9 2-2 2H20c-1.1 0-2-.9-2-2v-6.5Z" fill="url(#fav-g)"/>
  <path d="M22 25.8c0-.8.5-1.5 1.3-1.8l7.2-2.7c.3-.1.6-.1.9 0l7.3 2.7c.7.3 1.3 1 1.3 1.8v2.4c0 .8-.5 1.5-1.3 1.8l-7.2 2.7c-.3.1-.6.1-.9 0l-7.3-2.7c-.7-.3-1.3-1-1.3-1.8v-2.4Z" fill="#102742"/>
  <circle cx="32" cy="27.5" r="2" fill="#7DF0DA"/>
</svg>
